<?xml version="1.0" encoding="utf-8"?>
<!-- Generator: Adobe Illustrator 16.0.0, SVG Export Plug-In . SVG Version: 6.00 Build 0)  -->
<!DOCTYPE svg PUBLIC "-//W3C//DTD SVG 1.1 Tiny//EN" "http://www.w3.org/Graphics/SVG/1.1/DTD/svg11-tiny.dtd">
<svg version="1.1" baseProfile="tiny" id="Layer_1" xmlns="http://www.w3.org/2000/svg" xmlns:xlink="http://www.w3.org/1999/xlink"
	 x="0px" y="0px" width="259.2px" height="204.24px" viewBox="0 0 259.2 204.24" xml:space="preserve">
<path fill-rule="evenodd" fill="#26C2F3" d="M164.329,78.379h50.773c2.578,0,3.235,2.688,1.47,6.003l-19.169,36
	c-1.763,3.312-5.281,5.996-7.856,5.996h-50.739c-2.576,0-3.236-2.684-1.476-5.996l19.138-36
	C158.233,81.067,161.752,78.379,164.329,78.379z"/>
<path fill-rule="evenodd" fill="#26C2F3" d="M107.054,156.106H219.45c3.316,0,4.574,2.682,2.811,5.99l-19.151,35.921
	c-1.762,3.305-5.876,5.983-9.19,5.983H81.6c-3.314,0-4.577-2.678-2.821-5.983l19.087-35.921
	C99.625,158.788,103.738,156.106,107.054,156.106z"/>
<path fill-rule="evenodd" fill="#26C2F3" d="M70.464,78.379h36.064c3.319,0,4.583,2.688,2.823,6.003L49.017,198.017
	C47.262,201.322,43.154,204,39.84,204h-36c-3.313,0-4.58-2.678-2.827-5.983L61.27,84.382C63.028,81.067,67.145,78.379,70.464,78.379
	z"/>
<path fill-rule="evenodd" fill="#26C2F3" d="M66.656,0.24h188.703c3.323,0,4.583,2.694,2.813,6.017l-19.211,36.08
	c-1.768,3.319-5.892,6.01-9.213,6.01H41.173c-3.321,0-4.588-2.69-2.83-6.01l19.109-36.08C59.211,2.934,63.333,0.24,66.656,0.24z"/>
</svg>
